<svg width="32" height="32" viewBox="0 0 32 32" fill="none" xmlns="http://www.w3.org/2000/svg">
<path d="M23.8496 14.5293C25.7096 14.268 27.1416 12.6733 27.1456 10.7413C27.1456 8.83729 25.7576 7.25863 23.9376 6.95996" stroke="url(#paint0_linear_2817_19362)" stroke-width="2" stroke-linecap="round" stroke-linejoin="round"/>
<path d="M26.3027 19.001C28.1041 19.2703 29.3614 19.901 29.3614 21.201C29.3614 22.0956 28.7694 22.677 27.8121 23.0423" stroke="url(#paint1_linear_2817_19362)" stroke-width="2" stroke-linecap="round" stroke-linejoin="round"/>
<path fill-rule="evenodd" clip-rule="evenodd" d="M15.8477 19.5522C11.5623 19.5522 7.90234 20.2016 7.90234 22.7949C7.90234 25.3869 11.5397 26.0549 15.8477 26.0549C20.133 26.0549 23.7917 25.4122 23.7917 22.8176C23.7917 20.2229 20.1557 19.5522 15.8477 19.5522Z" stroke="url(#paint2_linear_2817_19362)" stroke-width="2" stroke-linecap="round" stroke-linejoin="round"/>
<path fill-rule="evenodd" clip-rule="evenodd" d="M15.8479 15.851C18.6599 15.851 20.9399 13.5723 20.9399 10.759C20.9399 7.94699 18.6599 5.66699 15.8479 5.66699C13.0359 5.66699 10.7559 7.94699 10.7559 10.759C10.7452 13.5617 13.0079 15.8417 15.8106 15.851H15.8479Z" stroke="url(#paint3_linear_2817_19362)" stroke-width="2" stroke-linecap="round" stroke-linejoin="round"/>
<path d="M7.84483 14.5293C5.98349 14.268 4.55283 12.6733 4.54883 10.7413C4.54883 8.83729 5.93683 7.25863 7.75683 6.95996" stroke="url(#paint4_linear_2817_19362)" stroke-width="2" stroke-linecap="round" stroke-linejoin="round"/>
<path d="M5.3907 19.001C3.58936 19.2703 2.33203 19.901 2.33203 21.201C2.33203 22.0956 2.92403 22.677 3.88136 23.0423" stroke="url(#paint5_linear_2817_19362)" stroke-width="2" stroke-linecap="round" stroke-linejoin="round"/>
<defs>
<linearGradient id="paint0_linear_2817_19362" x1="23.8496" y1="10.7446" x2="27.1456" y2="10.7446" gradientUnits="userSpaceOnUse">
<stop stop-color="#ea4335"/>
<stop offset="1" stop-color="#ea4335"/>
</linearGradient>
<linearGradient id="paint1_linear_2817_19362" x1="26.3027" y1="21.0216" x2="29.3614" y2="21.0216" gradientUnits="userSpaceOnUse">
<stop stop-color="#ea4335"/>
<stop offset="1" stop-color="#ea4335"/>
</linearGradient>
<linearGradient id="paint2_linear_2817_19362" x1="7.90234" y1="22.8036" x2="23.7917" y2="22.8036" gradientUnits="userSpaceOnUse">
<stop stop-color="#ea4335"/>
<stop offset="1" stop-color="#ea4335"/>
</linearGradient>
<linearGradient id="paint3_linear_2817_19362" x1="10.7559" y1="10.759" x2="20.9399" y2="10.759" gradientUnits="userSpaceOnUse">
<stop stop-color="#ea4335"/>
<stop offset="1" stop-color="#ea4335"/>
</linearGradient>
<linearGradient id="paint4_linear_2817_19362" x1="4.54883" y1="10.7446" x2="7.84483" y2="10.7446" gradientUnits="userSpaceOnUse">
<stop stop-color="#ea4335"/>
<stop offset="1" stop-color="#ea4335"/>
</linearGradient>
<linearGradient id="paint5_linear_2817_19362" x1="2.33203" y1="21.0216" x2="5.3907" y2="21.0216" gradientUnits="userSpaceOnUse">
<stop stop-color="#ea4335"/>
<stop offset="1" stop-color="#ea4335"/>
</linearGradient>
</defs>
</svg>
